<mxfile host="app.diagrams.net" modified="2023-10-12T17:32:26.774Z" agent="Mozilla/5.0 (Windows NT 10.0; Win64; x64; rv:109.0) Gecko/20100101 Firefox/118.0" etag="OOPVRyPthubVXFkVNoW9" version="22.0.4" type="github">
  <diagram name="PÃ¡gina-1" id="lXYBjrGAXq4gjmM6_KTa">
    <mxGraphModel dx="1832" dy="1078" grid="1" gridSize="10" guides="1" tooltips="1" connect="1" arrows="1" fold="1" page="1" pageScale="1" pageWidth="827" pageHeight="1169" math="0" shadow="0">
      <root>
        <mxCell id="0" />
        <mxCell id="1" parent="0" />
        <mxCell id="ZeFUsUMa-2Us43pgVEnO-1" value="&lt;div&gt;rg-principal&lt;/div&gt;&lt;div&gt;&lt;br&gt;&lt;/div&gt;" style="image;aspect=fixed;html=1;points=[];align=center;fontSize=12;image=img/lib/azure2/general/Resource_Groups.svg;" vertex="1" parent="1">
          <mxGeometry x="320" y="230" width="68" height="64" as="geometry" />
        </mxCell>
      </root>
    </mxGraphModel>
  </diagram>
</mxfile>
